<svg xmlns="http://www.w3.org/2000/svg" viewBox="0 0 512 512">
  <defs>
    <linearGradient id="g" x1="0" x2="1" y1="0" y2="1">
      <stop offset="0" stop-color="#8b5cf6"/>
      <stop offset="0.5" stop-color="#6366f1"/>
      <stop offset="1" stop-color="#06b6d4"/>
    </linearGradient>
    <linearGradient id="gi" x1="0" x2="0" y1="0" y2="1">
      <stop offset="0" stop-color="#ffffff" stop-opacity="0.18"/>
      <stop offset="1" stop-color="#ffffff" stop-opacity="0"/>
    </linearGradient>
  </defs>
  <rect width="512" height="512" rx="112" fill="url(#g)"/>
  <rect width="512" height="512" rx="112" fill="url(#gi)"/>
  <polygon points="256,68 412,158 412,354 256,444 100,354 100,158" fill="none" stroke="white" stroke-width="14" stroke-linejoin="round" opacity="0.95"/>
  <circle cx="160" cy="200" r="6" fill="white" opacity="0.6"/>
  <circle cx="352" cy="200" r="6" fill="white" opacity="0.6"/>
  <circle cx="160" cy="312" r="6" fill="white" opacity="0.6"/>
  <circle cx="352" cy="312" r="6" fill="white" opacity="0.6"/>
  <circle cx="256" cy="144" r="6" fill="white" opacity="0.6"/>
  <circle cx="256" cy="368" r="6" fill="white" opacity="0.6"/>
  <path d="M202 232v-30a54 54 0 0 1 108 0v30" fill="none" stroke="white" stroke-width="18" stroke-linecap="round"/>
  <rect x="180" y="232" width="152" height="120" rx="18" fill="white"/>
  <circle cx="256" cy="286" r="16" fill="url(#g)"/>
  <rect x="250" y="286" width="12" height="34" rx="6" fill="url(#g)"/>
</svg>
